<svg width="120" height="120" viewBox="0 0 120 120" fill="none" xmlns="http://www.w3.org/2000/svg">
    <path fill-rule="evenodd" clip-rule="evenodd" d="M91.2758 0.249023C108.548 0.249023 119.751 11.4523 119.751 28.7242V91.2759C119.751 108.548 108.548 119.751 91.2758 119.751H28.7241C11.4522 119.751 0.248901 108.548 0.248901 91.2759V28.7242C0.248901 11.4523 11.4522 0.249023 28.7241 0.249023H91.2758Z" fill="white"/>
    <path fill-rule="evenodd" clip-rule="evenodd" d="M8.18564 8.18564C3.27988 13.0914 0.497925 20.143 0.497925 28.7241V91.2759C0.497925 99.8569 3.27988 106.909 8.18564 111.814C13.0914 116.72 20.143 119.502 28.7241 119.502H91.2759C99.8569 119.502 106.909 116.72 111.814 111.814C116.72 106.909 119.502 99.8569 119.502 91.2759V28.7241C119.502 20.143 116.72 13.0914 111.814 8.18564C106.909 3.27988 99.8569 0.497925 91.2759 0.497925H28.7241C20.143 0.497925 13.0914 3.27988 8.18564 8.18564ZM7.83356 7.83356C12.8474 2.81971 20.0333 0 28.7241 0H91.2759C99.9667 0 107.153 2.81971 112.166 7.83356C117.18 12.8474 120 20.0333 120 28.7241V91.2759C120 99.9667 117.18 107.153 112.166 112.166C107.153 117.18 99.9667 120 91.2759 120H28.7241C20.0333 120 12.8474 117.18 7.83356 112.166C2.81971 107.153 0 99.9667 0 91.2759V28.7241C0 20.0333 2.81971 12.8474 7.83356 7.83356Z" fill="#A4A4A4"/>
    <mask id="mask0_2_2224" style="mask-type:alpha" maskUnits="userSpaceOnUse" x="0" y="0" width="120" height="120">
        <path fill-rule="evenodd" clip-rule="evenodd" d="M91.2758 0.249023C108.548 0.249023 119.751 11.4523 119.751 28.7242V91.2759C119.751 108.548 108.548 119.751 91.2758 119.751H28.7241C11.4522 119.751 0.248901 108.548 0.248901 91.2759V28.7242C0.248901 11.4523 11.4522 0.249023 28.7241 0.249023H91.2758Z" fill="white"/>
    </mask>
    <g mask="url(#mask0_2_2224)">
        <path fill-rule="evenodd" clip-rule="evenodd" d="M91.8673 27.1367L130.448 76.9909L130.464 132.593L61.9664 132.771L23.1536 93.8587L38.2757 53.1121L29.126 46.0811L91.8673 27.1367Z" fill="url(#paint0_linear_2_2224)"/>
        <path fill-rule="evenodd" clip-rule="evenodd" d="M25.1736 75.955H25.1661L23.1536 93.8885H83.898L85.8676 75.955H48.0906L48.9651 68.9962H86.8768L88.8551 53.0288H28.1536L26.0911 68.9962H26.1221L25.1736 75.955ZM29.1287 46.0877L31.1412 27.1367H91.8427L89.8731 46.0877H29.1287Z" fill="#EC1C24"/>
    </g>
    <defs>
        <linearGradient id="paint0_linear_2_2224" x1="23.1536" y1="27.1367" x2="23.1536" y2="132.771" gradientUnits="userSpaceOnUse">
            <stop stop-color="#E0E4E7"/>
            <stop offset="1" stop-color="#F5F6F7"/>
        </linearGradient>
    </defs>
</svg>
