<svg width="120" height="120" viewBox="0 0 120 120" fill="none" xmlns="http://www.w3.org/2000/svg">
    <path fill-rule="evenodd" clip-rule="evenodd" d="M91.2759 0.249023C108.548 0.249023 119.751 11.4523 119.751 28.7242V91.2759C119.751 108.548 108.548 119.751 91.2759 119.751H28.7242C11.4523 119.751 0.249023 108.548 0.249023 91.2759V28.7242C0.249023 11.4523 11.4523 0.249023 28.7242 0.249023H91.2759Z" fill="white"/>
    <path fill-rule="evenodd" clip-rule="evenodd" d="M8.18564 8.18564C3.27988 13.0914 0.497925 20.143 0.497925 28.7241V91.2759C0.497925 99.8569 3.27988 106.909 8.18564 111.814C13.0914 116.72 20.143 119.502 28.7241 119.502H91.2759C99.8569 119.502 106.909 116.72 111.814 111.814C116.72 106.909 119.502 99.8569 119.502 91.2759V28.7241C119.502 20.143 116.72 13.0914 111.814 8.18564C106.909 3.27988 99.8569 0.497925 91.2759 0.497925H28.7241C20.143 0.497925 13.0914 3.27988 8.18564 8.18564ZM7.83356 7.83356C12.8474 2.81971 20.0333 0 28.7241 0H91.2759C99.9667 0 107.153 2.81971 112.166 7.83356C117.18 12.8474 120 20.0333 120 28.7241V91.2759C120 99.9667 117.18 107.153 112.166 112.166C107.153 117.18 99.9667 120 91.2759 120H28.7241C20.0333 120 12.8474 117.18 7.83356 112.166C2.81971 107.153 0 99.9667 0 91.2759V28.7241C0 20.0333 2.81971 12.8474 7.83356 7.83356Z" fill="#A4A4A4"/>
    <path fill-rule="evenodd" clip-rule="evenodd" d="M22.1577 29.65C22.1577 28.1733 23.7084 27.2101 25.0321 27.8646L46.9004 38.6761V88.0932C46.9004 90.3291 44.5345 91.7727 42.5463 90.75L23.2383 80.8177C22.5748 80.4764 22.1577 79.7927 22.1577 79.0465V29.65Z" fill="#00AB6C"/>
    <path fill-rule="evenodd" clip-rule="evenodd" d="M46.8915 38.6802L72.2015 80.4L46.8915 67.6244V38.6802Z" fill="#14C767"/>
    <path fill-rule="evenodd" clip-rule="evenodd" d="M71.652 27.4903C72.2029 26.6158 73.3314 26.3081 74.2501 26.7819L97.8286 38.9428L72.1741 80.3772L55.5775 53.0067L71.652 27.4903Z" fill="#0BE370"/>
    <path fill-rule="evenodd" clip-rule="evenodd" d="M72.1807 80.3761L97.8246 38.9355L97.9807 85.3834C97.9931 89.1091 94.0595 91.5282 90.7401 89.8363L72.1807 80.3761Z" fill="#32FC8D"/>
</svg>
