<svg width="120" height="120" viewBox="0 0 120 120" fill="none" xmlns="http://www.w3.org/2000/svg">
    <path fill-rule="evenodd" clip-rule="evenodd" d="M91.4062 0C108.75 0 120 11.25 120 28.5938V91.4062C120 108.75 108.75 120 91.4062 120H28.5938C11.25 120 0 108.75 0 91.4062V28.5938C0 11.25 11.25 0 28.5938 0H91.4062Z" fill="white"/>
    <path d="M100.646 60.2502C100.646 38.0662 82.6634 20.0833 60.4794 20.0833C38.2953 20.0833 20.3124 38.0662 20.3124 60.2502C20.3124 82.4343 38.2953 100.417 60.4794 100.417C82.6634 100.417 100.646 82.4343 100.646 60.2502Z" fill="#757575"/>
    <path d="M32.3625 32.1333H88.5957V88.3664H32.3625V32.1333Z" fill="#BDBDBD"/>
    <path d="M88.5957 32.1333L60.4794 88.3664L32.3625 32.1333H88.5957Z" fill="white"/>
</svg>
