<svg width="120" height="120" viewBox="0 0 120 120" fill="none" xmlns="http://www.w3.org/2000/svg">
    <g clip-path="url(#clip0_10_5007)">
        <path d="M98.75 0H21.25C9.51396 0 0 9.75787 0 21.7948V98.2052C0 110.242 9.51396 120 21.25 120H98.75C110.486 120 120 110.242 120 98.2052V21.7948C120 9.75787 110.486 0 98.75 0Z" fill="#00005B"/>
        <path d="M48.2088 71.7945H29.6118L25.8278 83.8723C25.7784 84.0932 25.6545 84.289 25.478 84.4253C25.3015 84.5615 25.0837 84.6294 24.8631 84.6168H15.4545C14.9183 84.6168 14.731 84.3118 14.8925 83.7066L30.9934 36.3464C31.1526 35.8517 31.3142 35.3665 31.4758 34.7349C31.6867 33.6328 31.7941 32.5126 31.7966 31.3894C31.7785 31.2554 31.813 31.1195 31.8924 31.0115C31.9719 30.9035 32.0898 30.8321 32.2204 30.8131C32.267 30.8058 32.3143 30.8058 32.3609 30.8131H45.1601C45.5347 30.8131 45.7502 30.9499 45.804 31.2261L64.0685 83.7907C64.2246 84.3415 64.0638 84.6168 63.5861 84.6168H53.1192C52.9393 84.6367 52.7586 84.589 52.6104 84.4826C52.4623 84.3762 52.3568 84.2182 52.3137 84.038L48.2088 71.7945ZM32.5201 61.6116H45.2397C44.9165 60.5116 44.5403 59.2732 44.111 57.8963C43.6817 56.5193 43.2259 55.0471 42.7435 53.4797L41.2941 48.7725C40.8117 47.205 40.3692 45.6912 39.9664 44.231C39.5636 42.7708 39.1984 41.4363 38.8705 40.2275H38.7886C38.3366 42.4574 37.7723 44.6619 37.0979 46.8319C36.3471 49.3104 35.5821 51.8426 34.8032 54.4283C34.0242 57.0141 33.2601 59.4085 32.5107 61.6116H32.5201Z" fill="#9999FF"/>
        <path d="M93.6921 67.0944H77.8325C78.0264 68.7036 78.5473 70.2533 79.3615 71.6431C80.262 73.019 81.535 74.0951 83.0238 74.7388C85.0428 75.6348 87.2263 76.0739 89.4257 76.0261C91.1699 75.992 92.9074 75.7958 94.6171 75.4401C96.1466 75.2263 97.6452 74.823 99.0801 74.2393C99.3486 74.0215 99.4829 74.1592 99.4829 74.6524V82.4961C99.5073 82.6918 99.4744 82.8906 99.3885 83.0672C99.3027 83.2437 99.1676 83.3902 99.0005 83.488C97.4078 84.2109 95.7318 84.7225 94.0129 85.0106C91.6782 85.4616 89.305 85.6691 86.9296 85.6302C83.1175 85.6302 79.9243 85.025 77.3501 83.8146C74.9157 82.7144 72.7653 81.0467 71.0699 78.9441C69.4889 76.9629 68.312 74.6761 67.609 72.2195C66.9143 69.7922 66.5618 67.2754 66.5623 64.7456C66.5555 61.9843 66.9768 59.2394 67.8104 56.6137C68.6149 54.0524 69.8862 51.671 71.557 49.5961C73.2042 47.5452 75.2642 45.8838 77.596 44.7256C79.9563 43.5416 82.7475 43.1165 85.9672 43.1165C88.638 43.0489 91.2906 43.5852 93.7366 44.6872C95.7926 45.5857 97.6024 46.9875 99.0076 48.77C100.327 50.5152 101.336 52.4861 101.986 54.5915C102.62 56.6201 102.947 58.7367 102.953 60.867C102.953 62.0774 102.913 63.1782 102.831 64.1692C102.752 65.1587 102.684 65.8744 102.632 66.3163C102.611 66.4982 102.525 66.6658 102.391 66.7874C102.258 66.909 102.085 66.9763 101.906 66.9768C101.585 66.9768 101.035 67.0176 100.256 67.0992C99.4782 67.1833 98.5111 67.2361 97.3591 67.2649C96.207 67.2938 94.98 67.0944 93.6921 67.0944ZM77.8325 59.5725H88.3697C89.6575 59.5725 90.6098 59.5589 91.2264 59.5317C91.6403 59.4891 92.0399 59.3538 92.3972 59.1354V58.6383C92.3801 57.9931 92.2713 57.3539 92.0741 56.741C91.64 55.332 90.7668 54.1081 89.5886 53.2577C88.4104 52.4072 86.9924 51.9772 85.5527 52.0338C84.1981 51.9505 82.8491 52.273 81.67 52.9621C80.4909 53.6512 79.5326 54.6771 78.9119 55.9148C78.3636 57.067 77.9991 58.3019 77.8325 59.5725Z" fill="#9999FF"/>
    </g>
    <defs>
        <clipPath id="clip0_10_5007">
            <rect width="120" height="120" fill="white"/>
        </clipPath>
    </defs>
</svg>
